<svg width="72" height="72" fill="none" xmlns="http://www.w3.org/2000/svg"><circle cx="36" cy="36" r="36" fill="url(#a)"/><path fill-rule="evenodd" clip-rule="evenodd" d="M52.13 39.23c0 1.6-.74 3.05-1.9 4A7.1 7.1 0 0 1 56 50.19V56H41.16v-7.42a.97.97 0 0 0-.97-.97h-.96v1.15l-1.8.45-.27.64.96 1.59-3.45 3.45-1.6-.96c-.2.1-.42.19-.64.27L32 56h-4.88l-.45-1.8a8.56 8.56 0 0 1-.64-.27l-1.59.96-3.45-3.45.96-1.6c-.1-.2-.19-.42-.27-.63l-1.8-.45v-4.88l1.8-.44c.08-.22.17-.43.27-.64l-.96-1.6.69-.68h-1.15a1.94 1.94 0 0 1-1.94-1.94V37.3c0-1.07.87-1.94 1.94-1.94h1.29c.35 0 .64-.28.64-.64v-.65H16v-3.22c0-3.01 1.88-5.58 4.53-6.61a4.51 4.51 0 1 1 5.13 0c1.73.67 3.12 2 3.89 3.67.76-1.68 2.16-3 3.89-3.67a4.51 4.51 0 1 1 5.12 0 7.1 7.1 0 0 1 4.54 6.6v3.23h-6.45v.65c0 .36.28.64.64.64h1.3c1.06 0 1.93.87 1.93 1.94v1.3c0 1.06-.87 1.93-1.94 1.93h-1.15l.69.69-.97 1.59a3.27 3.27 0 0 1 .13.3h6.29a5.15 5.15 0 0 1 3.4-9.04 5.17 5.17 0 0 1 5.16 5.17Zm-5.16-3.88a3.87 3.87 0 1 0 0 7.75 3.87 3.87 0 0 0 0-7.75Zm-14.2-14.83a3.23 3.23 0 1 1 6.46 0 3.23 3.23 0 0 1-6.46 0Zm9.04 10.32a5.81 5.81 0 0 0-11.62 0v1.93h1.94v-5.16h1.29v5.16h5.16v-5.16h1.3v5.16h1.93v-1.93ZM19.87 20.52a3.23 3.23 0 1 1 6.46 0 3.23 3.23 0 0 1-6.46 0Zm3.23 4.51c-3.2 0-5.81 2.6-5.81 5.8v1.94h1.94v-5.16h1.29v5.16h5.16v-5.16h1.29v5.16h1.93v-1.93c0-3.2-2.6-5.8-5.8-5.8Zm-2.58 14.2a.65.65 0 0 1-.65-.65V37.3c0-.36.29-.64.65-.64h1.29c1.06 0 1.93-.87 1.93-1.94v-.65h11.61v.65c0 1.07.87 1.94 1.94 1.94h1.3c.35 0 .64.28.64.64v1.3c0 .35-.3.64-.65.64h-2.44l-1.47-1.48-1.6.97c-.2-.1-.42-.2-.64-.27l-.44-1.8h-4.88l-.45 1.8-.64.27-1.59-.97-1.47 1.48h-2.44Zm15.9 8.9 1.52-.38v-.14H35.2a5.81 5.81 0 1 1-.85-4.51h1.5l-.01-.04-.17-.32.81-1.34-2.02-2.02-1.34.81-.32-.17c-.37-.19-.75-.34-1.11-.46l-.35-.11-.37-1.51h-2.86l-.37 1.5-.35.12c-.37.11-.74.27-1.11.46l-.32.17-1.34-.8-2.02 2.01.8 1.34-.16.32c-.2.37-.35.75-.47 1.11l-.1.35-1.52.37v2.86l1.51.37.11.35c.12.37.28.74.47 1.11l.17.32-.81 1.34 2.02 2.02 1.34-.8.32.16c.37.2.74.35 1.11.47l.35.1.37 1.52h2.86l.37-1.51.35-.11c.36-.12.74-.28 1.1-.47l.33-.17 1.34.81 2.02-2.02-.81-1.34.17-.32c.19-.37.35-.74.46-1.11l.11-.35Zm-5.33-.64a1.93 1.93 0 1 1-1.4-3.09l.07.01a2.23 2.23 0 0 0 1.33 3.08Zm-1.54-4.4c.43 0 .85.1 1.24.26.3-.16.65-.25 1.02-.25h.9a4.52 4.52 0 1 0 1.17 4.52H32.5a3.23 3.23 0 1 1-2.95-4.52ZM54.7 54.72h-1.94v-7.1h-1.29v7.1h-9.03v-6.13a2.26 2.26 0 0 0-2.26-2.26h-8.38a.97.97 0 0 1 0-1.93h17.1c3.2 0 5.8 2.6 5.8 5.8v4.52ZM56 28.26a4.52 4.52 0 0 0-4.52-4.52H48.9a4.52 4.52 0 0 0-4.51 4.52v4.51h7.1A4.52 4.52 0 0 0 56 28.26Zm-10.32 0a3.23 3.23 0 0 1 3.22-3.23h2.58a3.23 3.23 0 0 1 0 6.45h-5.8v-3.22Zm1.29.64h1.29v1.3h-1.3v-1.3Zm3.87 0h-1.3v1.3h1.3v-1.3Zm1.29 0h1.29v1.3h-1.3v-1.3Zm1.29-2.58h-6.45v1.3h6.45v-1.3Z" fill="#fff"/><defs><linearGradient id="a" x1="-35.85" y1="35.85" x2="35.85" y2="107.55" gradientUnits="userSpaceOnUse"><stop stop-color="#33D35E"/><stop offset="1" stop-color="#2AB6D9"/></linearGradient></defs></svg>