<svg width="21" height="20" fill="none" xmlns="http://www.w3.org/2000/svg"><path fill-rule="evenodd" clip-rule="evenodd" d="M10.33 0C7.62 0 7.28.01 6.21.06 2.58.23.56 2.24.4 5.88.35 6.94.33 7.28.33 10s.02 3.06.06 4.12c.17 3.63 2.19 5.65 5.82 5.82 1.07.05 1.4.06 4.12.06s3.06-.01 4.13-.06c3.63-.17 5.65-2.18 5.81-5.82.05-1.06.06-1.4.06-4.12s0-3.06-.06-4.12C20.11 2.25 18.1.23 14.46.06 13.39.01 13.05 0 10.33 0Zm0 1.8c2.67 0 2.99.01 4.04.06 2.72.12 3.98 1.41 4.1 4.1.05 1.05.06 1.37.06 4.04s0 2.99-.06 4.04c-.12 2.69-1.38 3.98-4.1 4.1a69.1 69.1 0 0 1-4.04.06c-2.67 0-2.98-.01-4.04-.06-2.71-.12-3.97-1.41-4.1-4.1A69.15 69.15 0 0 1 2.14 10a70 70 0 0 1 .05-4.04c.13-2.69 1.39-3.98 4.1-4.1 1.06-.05 1.37-.06 4.04-.06ZM5.2 10a5.14 5.14 0 1 1 10.27 0A5.14 5.14 0 0 1 5.2 10Zm5.13 3.33a3.33 3.33 0 1 1 0-6.66 3.33 3.33 0 0 1 0 6.66Zm4.14-8.67a1.2 1.2 0 1 1 2.4 0 1.2 1.2 0 0 1-2.4 0Z" fill="#fff"/></svg>