<svg width="139" height="20" fill="none" xmlns="http://www.w3.org/2000/svg"><path fill-rule="evenodd" clip-rule="evenodd" d="M91.3 15.85c3.5 0 5.97-2.52 5.97-6.05S94.8 3.75 91.3 3.75c-1.06 0-2.02.28-2.83.78V0H84.6v15.47h2.9l.37-.84c.92.77 2.1 1.22 3.43 1.22Zm-26.6 0c3.01 0 5.02-1.56 5.02-3.93 0-2.84-2.31-3.25-4.1-3.56l-.09-.02h-.02c-1.07-.2-1.93-.35-1.93-.99 0-.53.42-.84 1.05-.84.71 0 1.2.34 1.2 1.07h3.67c-.05-2.3-1.92-3.85-4.82-3.85-2.91 0-4.85 1.47-4.85 3.75 0 2.76 2.33 3.3 4.1 3.58 1.09.18 1.95.37 1.95 1.02 0 .59-.54.88-1.12.88-.74 0-1.32-.38-1.32-1.21h-3.77c.04 2.46 1.92 4.1 5.02 4.1Zm-21-4.22a5.99 5.99 0 0 1-5.95 4.22 5.96 5.96 0 0 1-6.17-6.07c0-3.48 2.6-6.05 6.17-6.05 3.67 0 6.2 2.62 6.2 5.95 0 .34-.02.69-.08 1.04h-8.44c.26 1.3 1.09 1.98 2.32 1.98.92 0 1.68-.4 2.06-1.07h3.9Zm-8.2-3.08h4.6a2.28 2.28 0 0 0-2.35-1.75c-1.14 0-1.93.62-2.25 1.75Zm15.54 7.3c1.32 0 2.5-.44 3.43-1.2l.34.81h3.03V4.1h-2.92l-.4.88a5.4 5.4 0 0 0-3.48-1.22 5.77 5.77 0 0 0-5.96 6.03c0 3.53 2.49 6.07 5.96 6.07Zm-2.02-6.06a2.5 2.5 0 0 0 2.55 2.59 2.5 2.5 0 0 0 2.54-2.6 2.5 2.5 0 0 0-2.54-2.58 2.5 2.5 0 0 0-2.55 2.59Zm29.65 5.18c-1.53 3.48-2.94 4.73-5.88 4.73h-1.34v-3.36h1.08c1.5 0 1.95-.4 2.48-1.8L70.3 4.1h4.25l2.42 6.26 2.25-6.26h4.2l-4.76 10.86Zm9.56-5.17a2.5 2.5 0 0 0 2.54 2.58 2.5 2.5 0 0 0 2.55-2.58 2.5 2.5 0 0 0-2.55-2.6 2.5 2.5 0 0 0-2.54 2.6Zm16.14 6.05c1.32 0 2.5-.44 3.43-1.2l.34.81h3.02V4.1h-2.91l-.4.88a5.4 5.4 0 0 0-3.48-1.22 5.77 5.77 0 0 0-5.96 6.03c0 3.53 2.48 6.07 5.96 6.07Zm-2.02-6.06a2.5 2.5 0 0 0 2.54 2.59 2.5 2.5 0 0 0 2.55-2.6 2.5 2.5 0 0 0-2.55-2.58 2.5 2.5 0 0 0-2.54 2.59Zm15.2 5.68V9.4c0-1.44.7-2.3 1.92-2.3.99 0 1.48.66 1.48 1.98v6.4h3.92V8.53c0-2.9-1.74-4.77-4.38-4.77-1.47 0-2.73.56-3.57 1.5l-.54-1.16h-2.75v11.36h3.92Zm13.74-4.8v4.8h-3.91V0h3.91v8.56L134 4.1h4.4l-3.54 5.41 3.9 5.95h-4.62l-2.84-4.8Z" fill="#fff"/><path fill-rule="evenodd" clip-rule="evenodd" d="M10.8 0 0 19.7h5.99L16.79 0H10.8Z" fill="url(#a)"/><path opacity=".5" fill-rule="evenodd" clip-rule="evenodd" d="M18.17 0 7.37 19.7h5.98L24.15 0h-5.98Z" fill="url(#b)"/><path opacity=".15" fill-rule="evenodd" clip-rule="evenodd" d="m25.54 0-10.8 19.7h5.98L31.52 0h-5.98Z" fill="url(#c)"/><defs><linearGradient id="a" x1="5.13" y1="-7.42" x2="-10.19" y2="9.91" gradientUnits="userSpaceOnUse"><stop stop-color="#33D35E"/><stop offset="1" stop-color="#2AB6D9"/></linearGradient><linearGradient id="b" x1="12.5" y1="-7.42" x2="-2.83" y2="9.91" gradientUnits="userSpaceOnUse"><stop stop-color="#33D35E"/><stop offset="1" stop-color="#2AB6D9"/></linearGradient><linearGradient id="c" x1="19.87" y1="-7.42" x2="4.54" y2="9.91" gradientUnits="userSpaceOnUse"><stop stop-color="#33D35E"/><stop offset="1" stop-color="#2AB6D9"/></linearGradient></defs></svg>