<svg width="72" height="72" fill="none" xmlns="http://www.w3.org/2000/svg"><circle cx="36" cy="36" r="36" fill="url(#a)"/><path fill-rule="evenodd" clip-rule="evenodd" d="M49.32 23.06v-3.73c0-1.84-1.5-3.33-3.34-3.33H19.33A3.34 3.34 0 0 0 16 19.33V34c0 1.7 1.3 3.13 2.99 3.3l2.5 6.5a3.33 3.33 0 0 0 4.3 1.91l15.65-6.02a9.63 9.63 0 0 0 .83 8.55l.38.61v6.47c0 .37.3.67.67.67h12c.36 0 .66-.3.66-.67v-22c0-2.3-.92-4.5-2.55-6.13l-4.11-4.12Zm0 3.98 2.02 5.25a2 2 0 0 1-1.15 2.59l-1.16.44c.19-.42.28-.87.29-1.33v-6.95Zm-31.99-7.7v14.65c0 1.1.9 2 2 2h19.98l-2.6-2.84a3.55 3.55 0 0 1 5.12-4.92l6.1 6.1c.03-.1.05-.22.05-.34V19.33a2 2 0 0 0-2-2H19.33a2 2 0 0 0-2 2Zm8.54 17.98-4.74 1.83-.7-1.83h5.44Zm-3.13 5.99a2 2 0 0 0 2.58 1.15l16.07-6.2-.86-.94H29.57L21.6 40.4l1.13 2.92Zm21.25 11.34v-5.33h10.66v5.33H43.99Zm-.3-6.67h10.96V33.32c0-1.95-.79-3.82-2.17-5.2l-2.15-2.16 2.25 5.85a3.33 3.33 0 0 1-1.91 4.3l-.68.27 2.46 2.47-.94.94-10.62-10.61a2.22 2.22 0 0 0-3.2 3.07l5.45 5.96c.2.21.23.53.1.78a8.3 8.3 0 0 0 .16 8.53l.29.46ZM25.33 23.6c0 .95-.78 1.73-1.73 1.73h-3.2c-.96 0-1.73-.78-1.73-1.73v-3.2c0-.96.77-1.73 1.73-1.73h3.2c.95 0 1.73.77 1.73 1.73v3.2ZM20 22.66v.94c0 .22.18.4.4.4h3.2a.4.4 0 0 0 .4-.4v-.94h-1.34v-1.33H24v-.93a.4.4 0 0 0-.4-.4h-3.2a.4.4 0 0 0-.4.4v.93h1.33v1.33H20Zm2 4.67h-2.67v1.33H22v-1.33Zm-2.67 4H22v1.33h-2.67v-1.33Zm14.66 0h-2.66v1.33h2.66v-1.33Zm-10.66-4h2.66v1.33h-2.66v-1.33Zm6.66 0h-2.66v1.33h2.66v-1.33Zm1.34 0h2.66v1.33h-2.66v-1.33Zm13.99-8h-1.33v2h1.33v-2Zm-4 0h1.33v2h-1.33v-2Zm-1.33 0h-1.34v2H40v-2Zm-4 0h1.33v2H36v-2Zm10.66 32.65v-1.33h-1.33v1.33h1.33Z" fill="#fff"/><defs><linearGradient id="a" x1="-35.85" y1="35.85" x2="35.85" y2="107.55" gradientUnits="userSpaceOnUse"><stop stop-color="#33D35E"/><stop offset="1" stop-color="#2AB6D9"/></linearGradient></defs></svg>