<svg width="72" height="72" fill="none" xmlns="http://www.w3.org/2000/svg"><circle cx="36" cy="36" r="36" fill="url(#a)"/><path fill-rule="evenodd" clip-rule="evenodd" d="M55.41 35.41h-9.43v-1.33h2.55a.59.59 0 1 0 0-1.17h-2.55v-1.33h1.77c.66 0 1.27-.26 1.74-.73L53.34 27a1.83 1.83 0 0 0 2.12-.35 1.83 1.83 0 0 0 0-2.6 1.83 1.83 0 0 0-2.6 0 1.83 1.83 0 0 0-.35 2.12l-3.85 3.86c-.24.24-.57.37-.91.37h-1.77v-1.29a3.1 3.1 0 0 0-3.1-3.09H41.6v-5.19a1.84 1.84 0 1 0-1.18 0v5.19H39.1v-2.55a.59.59 0 1 0-1.17 0v2.55h-1.33v-9.43a.59.59 0 1 0-1.18 0v9.43h-1.33v-2.55a.59.59 0 1 0-1.17 0v2.55h-1.33v-1.77c0-.66-.26-1.27-.73-1.74L27 18.66a1.84 1.84 0 1 0-.83.82l3.86 3.86c.24.24.37.57.37.91v1.77h-1.29c-.26 0-.52.03-.77.1a.59.59 0 0 0 .3 1.13c.15-.04.3-.06.47-.06H42.9c1.06 0 1.92.86 1.92 1.92V42.9c0 .16-.02.32-.06.48a.59.59 0 1 0 1.13.3c.07-.26.1-.52.1-.78v-1.3h5.19a1.84 1.84 0 1 0 0-1.17h-5.19V39.1h2.55a.59.59 0 0 0 0-1.17h-2.55v-1.33h9.43a.59.59 0 1 0 0-1.18ZM53.7 24.88a.66.66 0 0 1 .94 0 .66.66 0 0 1 0 .94.66.66 0 0 1-.94 0 .66.66 0 0 1 0-.94Zm-28.8-6.57a.67.67 0 1 0 .94-.94.67.67 0 0 0-.95.94ZM41 19.76a.67.67 0 1 1 0-1.34.67.67 0 0 1 0 1.34ZM53.58 41a.67.67 0 1 0-1.34 0 .67.67 0 0 0 1.34 0Zm-5.63 11.85a1.84 1.84 0 0 0-2.12-.34l-3.86-3.86a1.28 1.28 0 0 1-.37-.91v-1.77h1.29c.26 0 .52-.03.77-.1a.59.59 0 0 0-.3-1.13c-.15.04-.3.06-.47.06H29.1a1.92 1.92 0 0 1-1.92-1.92V29.1c0-.16.02-.32.06-.48a.59.59 0 0 0-1.13-.3c-.07.26-.1.52-.1.78v1.3h-5.19a1.84 1.84 0 1 0 0 1.17h5.19v1.33h-2.55a.59.59 0 1 0 0 1.17h2.55v1.33h-9.43a.59.59 0 1 0 0 1.18h9.43v1.33h-2.55a.59.59 0 1 0 0 1.17h2.55v1.33h-1.77c-.66 0-1.27.26-1.74.73L18.66 45a1.83 1.83 0 0 0-2.12.35 1.83 1.83 0 0 0 0 2.6 1.83 1.83 0 0 0 2.6 0 1.83 1.83 0 0 0 .35-2.12l3.85-3.86c.24-.24.57-.37.91-.37h1.77v1.29a3.1 3.1 0 0 0 3.1 3.09h1.28v5.19a1.84 1.84 0 1 0 1.18 0v-5.19h1.33v2.55a.59.59 0 0 0 1.17 0v-2.55h1.33v9.43a.59.59 0 1 0 1.18 0v-9.43h1.33v2.55a.59.59 0 1 0 1.17 0v-2.55h1.33v1.77c0 .66.26 1.27.73 1.74L45 53.34a1.84 1.84 0 1 0 2.95-.48Zm-28.86-21.2a.67.67 0 1 1 0-1.34.67.67 0 0 1 0 1.34ZM17.84 47.3a.66.66 0 0 0 .66-.66.66.66 0 0 0-.66-.67.66.66 0 0 0-.67.67.66.66 0 0 0 .67.66Zm13.82 5.6a.67.67 0 1 1-1.34 0 .67.67 0 0 1 1.34 0Zm14.52 1.72a.67.67 0 1 0 .94-.94.67.67 0 0 0-.94.94Zm-3.96-20.2c0-1.25-.91-2.31-2.17-2.66a2 2 0 0 0 .06-.47c0-1.18-1.05-2.15-2.35-2.15-.7 0-1.33.29-1.76.73a2.44 2.44 0 0 0-1.76-.73c-1.3 0-2.35.97-2.35 2.15a2 2 0 0 0 .06.47 2.83 2.83 0 0 0-2.17 2.66c0 .62.21 1.2.61 1.67a2.9 2.9 0 0 0 .8 4.28c0 1.36 1.2 2.47 2.7 2.47A2.8 2.8 0 0 0 36 41.9c.5.57 1.26.94 2.11.94 1.44 0 2.61-1.03 2.7-2.31a2.74 2.74 0 0 0 1.41-2.35c0-.7-.3-1.37-.81-1.88.51-.5.81-1.17.81-1.88Zm-2.07 2.4c.56.3.9.8.9 1.36 0 .41-.2.8-.52 1.1A2.63 2.63 0 0 0 39 38.05a.59.59 0 0 0-.35 1.12c.6.19 1 .68 1 1.21 0 .72-.68 1.3-1.53 1.3-.84 0-1.52-.58-1.52-1.3v-3.75c0-.72.68-1.3 1.52-1.3a.59.59 0 1 0 0-1.17c-.56 0-1.09.16-1.52.44v-.75a.59.59 0 0 0-1.18 0v3.25a2.8 2.8 0 0 0-.64-.3.59.59 0 1 0-.35 1.12c.6.19 1 .67 1 1.21v1.25c0 .72-.7 1.3-1.53 1.3-.85 0-1.53-.58-1.53-1.3 0-.3.13-.6.36-.83a.59.59 0 1 0-.82-.83c-.14.14-.26.29-.36.45a1.79 1.79 0 0 1-.6-1.3c0-.86.7-1.62 1.67-1.85a.59.59 0 1 0-.27-1.14c-.39.1-.75.24-1.07.44-.2-.26-.32-.57-.32-.89 0-.88.84-1.6 1.86-1.6h.02a.58.58 0 0 0 .5-.9l-.02-.02a.61.61 0 0 0-.03-.04.87.87 0 0 1-.22-.57c0-.54.53-.98 1.18-.98.65 0 1.17.44 1.17.98a.59.59 0 0 0 1.18 0c0-.54.52-.98 1.17-.98.65 0 1.18.44 1.18.98 0 .15-.04.27-.1.37-.32.03-.65.11-.95.24a.59.59 0 0 0 .45 1.08c.26-.1.53-.16.81-.16h.03c1.03 0 1.87.72 1.87 1.6 0 .56-.34 1.07-.9 1.36a.59.59 0 0 0 0 1.04Z" fill="#fff"/><defs><linearGradient id="a" x1="-35.85" y1="35.85" x2="35.85" y2="107.55" gradientUnits="userSpaceOnUse"><stop stop-color="#33D35E"/><stop offset="1" stop-color="#2AB6D9"/></linearGradient></defs></svg>