<svg width="20" height="20" fill="none" xmlns="http://www.w3.org/2000/svg"><path d="M10 0a10 10 0 0 0-3.64 19.31c-.1-.79-.17-2 .03-2.87l1.17-4.97s-.3-.6-.3-1.48c0-1.4.81-2.43 1.81-2.43.86 0 1.27.64 1.27 1.4 0 .87-.55 2.15-.83 3.34-.24 1 .5 1.8 1.48 1.8 1.78 0 3.14-1.87 3.14-4.57 0-2.4-1.72-4.07-4.17-4.07A4.33 4.33 0 0 0 5.44 9.8c0 .86.33 1.78.75 2.28.08.1.09.19.07.29l-.28 1.13c-.05.18-.15.22-.34.13-1.25-.58-2.03-2.4-2.03-3.87 0-3.15 2.3-6.05 6.61-6.05 3.47 0 6.17 2.47 6.17 5.77 0 3.45-2.18 6.22-5.2 6.22-1 0-1.96-.52-2.29-1.14l-.62 2.37c-.22.87-.83 1.96-1.24 2.62A10.03 10.03 0 0 0 20 10 10 10 0 0 0 10 0Z" fill="#fff"/></svg>