<svg width="72" height="72" fill="none" xmlns="http://www.w3.org/2000/svg"><circle cx="36" cy="36" r="36" fill="url(#a)"/><path fill-rule="evenodd" clip-rule="evenodd" d="M47.72 19.1v7.56c5.24.29 9.4 4.37 9.4 9.34s-4.16 9.05-9.4 9.34v7.57A3.1 3.1 0 0 1 44.63 56H27.1a3.1 3.1 0 0 1-3.1-3.1v-7.23a.59.59 0 1 1 1.18 0v3.52h21.37v-3.85c-1-.06-1.96-.25-2.89-.57l-4.38 2.4c-.47.25-1.02-.23-.84-.72l1.31-3.6h-6.7a.6.6 0 0 1-.42-.17l-4.7-4.7a.6.6 0 0 1-.17-.41V24.73c0-.33.27-.59.6-.59h15.02c.32 0 .59.26.59.59v2.4a10.5 10.5 0 0 1 2.58-.47v-4.48H25.18v20.7a.59.59 0 1 1-1.17 0V19.1A3.1 3.1 0 0 1 27.1 16h17.53a3.1 3.1 0 0 1 3.1 3.1Zm-3.09 35.73c1.06 0 1.92-.86 1.92-1.92v-2.55H25.18v2.55c0 1.06.86 1.92 1.92 1.92h17.53ZM25.18 21v-1.92c0-1.06.86-1.92 1.92-1.92h17.53c1.06 0 1.92.86 1.92 1.92v1.92H25.18Zm4.59 17.14 2.7 2.7v-2.7h-2.7Zm3.86 3.53v-4.11a.59.59 0 0 0-.58-.6h-4.11V25.33h13.85v2.26c-.6.27-1.17.6-1.7.99a.58.58 0 0 0-.21-.05h-3.14a.59.59 0 1 0 0 1.18h2.03a9.43 9.43 0 0 0-1.47 1.96h-6.82a.59.59 0 1 0 0 1.17h6.27a8.9 8.9 0 0 0 1.45 8.85h-5.57Zm10.19 1.9c1.05.4 2.17.6 3.32.6 4.85 0 8.8-3.67 8.8-8.18s-3.95-8.18-8.8-8.18c-4.86 0-8.8 3.67-8.8 8.18 0 2.22.93 4.3 2.64 5.85.18.16.24.4.16.63l-1.06 2.9 3.25-1.77c.15-.08.33-.1.49-.03Zm-9.2-25.08h2.5a.59.59 0 1 1 0 1.18h-2.5a.59.59 0 1 1 0-1.18Zm2.5 32.57h-2.5a.59.59 0 0 0-.6.59v1.87c0 .33.27.6.6.6h2.5c.32 0 .59-.27.59-.6v-1.87a.59.59 0 0 0-.6-.6Zm-.59 1.88H35.2v-.7h1.33v.7Zm-1.29-24.43h-3.76a.59.59 0 1 0 0 1.18h3.76a.59.59 0 1 0 0-1.18Zm-3.76 6.27h4.39a.59.59 0 1 1 0 1.17h-4.39a.59.59 0 1 1 0-1.17Zm18.75-.67a.59.59 0 1 1-1.17 0v-.62c0-.72-.58-1.3-1.3-1.3h-.94a1.6 1.6 0 0 0 0 3.21h.63a2.78 2.78 0 0 1 .27 5.55v1.3a.59.59 0 1 1-1.17 0v-1.29h-.04a2.47 2.47 0 0 1-2.46-2.47.59.59 0 1 1 1.17 0c0 .72.58 1.3 1.3 1.3h.93a1.6 1.6 0 0 0 0-3.21h-.63a2.78 2.78 0 0 1-.27-5.55v-1.3a.59.59 0 1 1 1.17 0v1.29h.04c1.36 0 2.47 1.1 2.47 2.47v.62Z" fill="#fff"/><defs><linearGradient id="a" x1="-35.85" y1="35.85" x2="35.85" y2="107.55" gradientUnits="userSpaceOnUse"><stop stop-color="#33D35E"/><stop offset="1" stop-color="#2AB6D9"/></linearGradient></defs></svg>